<svg width="101" height="205" viewBox="0 0 101 205" fill="none" xmlns="http://www.w3.org/2000/svg">
<path d="M87.1569 0.838867H13.7372C6.16363 0.838867 0.0201416 6.98235 0.0201416 14.556V190.652C0.0201416 198.226 6.16363 204.37 13.7372 204.37H87.1569C94.7305 204.37 100.874 198.226 100.874 190.652V14.566C100.874 6.98236 94.7305 0.838867 87.1569 0.838867ZM100.491 189.383C100.491 190.814 100.26 192.193 99.8468 193.482C99.8165 193.583 99.7863 193.684 99.746 193.775C99.7158 193.875 99.6755 193.966 99.6352 194.067C99.605 194.137 99.5849 194.218 99.5547 194.288C99.464 194.5 99.3734 194.721 99.2827 194.933C99.2425 195.023 99.1921 195.124 99.1518 195.215C99.0914 195.346 99.0209 195.477 98.9605 195.597C98.9202 195.688 98.8698 195.769 98.8195 195.849C98.7691 195.94 98.7188 196.031 98.6684 196.121C98.5274 196.363 98.3763 196.605 98.2152 196.846C98.1648 196.917 98.1145 196.997 98.0641 197.068C98.0037 197.148 97.9433 197.229 97.8828 197.32C97.8224 197.4 97.762 197.481 97.7016 197.561C97.6411 197.642 97.5807 197.722 97.5102 197.803C97.4498 197.884 97.3793 197.964 97.3088 198.045C97.1779 198.196 97.0368 198.357 96.9059 198.498C96.6944 198.73 96.4729 198.951 96.2412 199.163C96.1707 199.223 96.1002 199.294 96.0297 199.354C95.8686 199.495 95.7074 199.636 95.5362 199.767C95.4657 199.827 95.3952 199.878 95.3147 199.938C95.073 200.129 94.8212 200.301 94.5694 200.472C94.4888 200.532 94.3982 200.583 94.3075 200.643C94.1363 200.754 93.955 200.855 93.7838 200.965C93.6932 201.016 93.6126 201.066 93.522 201.116C93.2299 201.278 92.9378 201.419 92.6357 201.55C92.5551 201.59 92.4746 201.62 92.394 201.65C92.3033 201.691 92.2026 201.731 92.112 201.771C92.0113 201.811 91.9206 201.852 91.8199 201.882C91.6084 201.962 91.3869 202.043 91.1653 202.114C91.0847 202.144 91.0142 202.164 90.9337 202.184C90.6416 202.275 90.3495 202.345 90.0474 202.416C89.9467 202.436 89.8359 202.466 89.7352 202.486C89.6244 202.506 89.5136 202.526 89.4028 202.547C89.2014 202.587 88.9899 202.617 88.7784 202.637H88.7683C88.728 202.647 88.6878 202.647 88.6475 202.647C88.6173 202.657 88.587 202.657 88.5568 202.657C88.5468 202.657 88.5367 202.657 88.5166 202.657C88.7079 202.637 88.8892 202.607 89.0805 202.577C89.1712 202.557 89.2618 202.547 89.3625 202.526C89.4532 202.506 89.5438 202.486 89.6345 202.476C89.9064 202.416 90.1783 202.355 90.4502 202.275C90.5409 202.255 90.6315 202.224 90.7121 202.194C90.8833 202.144 91.0646 202.083 91.2358 202.023C91.4977 201.932 91.7494 201.832 92.0012 201.721C92.0818 201.691 92.1724 201.65 92.253 201.61C92.3336 201.57 92.4141 201.529 92.4947 201.489C92.6558 201.409 92.817 201.328 92.9781 201.237C93.1393 201.147 93.2903 201.056 93.4515 200.965C93.5925 200.875 93.7335 200.794 93.8644 200.704C93.8845 200.694 93.8946 200.683 93.9047 200.673C94.1263 200.522 94.3478 200.361 94.5593 200.2C94.6298 200.15 94.7003 200.089 94.7708 200.029C94.9722 199.868 95.1636 199.696 95.3549 199.525C95.8182 199.092 96.2513 198.629 96.6441 198.135C96.7045 198.065 96.7549 197.994 96.8052 197.924C97.3692 197.179 97.8526 196.363 98.2353 195.497C98.2958 195.356 98.3562 195.215 98.4065 195.074C98.6785 194.389 98.89 193.674 99.031 192.929C99.0612 192.788 99.0813 192.636 99.1115 192.485C99.2022 191.891 99.2525 191.277 99.2525 190.663V14.566C99.2525 8.34198 94.519 3.20564 88.4662 2.56108C88.3554 2.55101 88.2547 2.54091 88.1439 2.53084C88.0331 2.52076 87.9223 2.51074 87.8115 2.51074C87.6101 2.50066 87.3986 2.49057 87.1972 2.49057H13.7775C13.566 2.49057 13.3646 2.50066 13.1632 2.51074H13.1531C6.78805 2.84309 1.71212 8.1204 1.71212 14.556V190.652C1.71212 196.846 6.40534 201.962 12.4179 202.647C12.3373 202.637 12.2568 202.637 12.1762 202.627H12.1661C11.9546 202.597 11.7431 202.567 11.5417 202.537C10.2828 202.325 9.0843 201.932 7.96639 201.388C7.88582 201.348 7.81532 201.308 7.73475 201.278C7.53333 201.177 7.34197 201.066 7.15061 200.955C7.05997 200.905 6.9794 200.855 6.88876 200.804C6.45569 200.542 6.0327 200.25 5.62985 199.938C5.55935 199.878 5.48885 199.827 5.41835 199.767C5.20686 199.596 4.99536 199.414 4.79394 199.233C4.72344 199.173 4.66301 199.112 4.60258 199.052C4.52201 198.981 4.45151 198.911 4.38101 198.84C4.31051 198.77 4.24001 198.689 4.15944 198.619C4.10908 198.568 4.0688 198.518 4.01844 198.468C3.95802 198.407 3.89759 198.337 3.84723 198.276C3.50481 197.894 3.1926 197.491 2.89046 197.078C2.84011 197.007 2.78975 196.927 2.73939 196.856C2.57825 196.625 2.42718 196.383 2.28618 196.141C2.23582 196.051 2.18547 195.97 2.13512 195.879C1.76248 195.215 1.45027 194.52 1.19849 193.805C1.1582 193.704 1.12798 193.613 1.09777 193.513C0.936628 193.009 0.805702 192.506 0.704989 191.982C0.684847 191.881 0.664707 191.77 0.644564 191.67C0.523709 190.934 0.453207 190.179 0.453207 189.414V14.566C0.453207 14.4351 0.453209 14.3042 0.463281 14.1732C0.463281 14.0725 0.473354 13.9819 0.473354 13.8812C0.483425 13.6697 0.503563 13.4582 0.523706 13.2467C0.533777 13.1359 0.543849 13.0251 0.563992 12.9244C0.574063 12.864 0.584139 12.8136 0.584139 12.7532C0.59421 12.6827 0.60428 12.6122 0.614352 12.5417C0.634494 12.4309 0.644561 12.3202 0.664703 12.2094C0.694917 12.018 0.735203 11.8267 0.775488 11.6454C0.795631 11.5548 0.815773 11.4641 0.845987 11.3634C0.916486 11.0814 0.986988 10.8195 1.07763 10.5476C1.10784 10.467 1.13806 10.3764 1.1582 10.2958C1.19849 10.1951 1.2287 10.0843 1.26899 9.98361C1.2992 9.89297 1.32941 9.8124 1.3697 9.73183C1.39991 9.66133 1.42006 9.59081 1.45027 9.52031C1.48048 9.43974 1.52077 9.3491 1.55098 9.26853C1.5812 9.2081 1.60134 9.14768 1.63155 9.08725C1.67184 8.99661 1.71212 8.90601 1.76248 8.81537C1.83298 8.65423 1.91354 8.50313 2.00419 8.34199C2.04447 8.26142 2.08476 8.18086 2.13512 8.10029C2.18547 8.00965 2.23582 7.91898 2.28618 7.82834C2.65882 7.20392 3.07174 6.59969 3.54509 6.04577C3.61559 5.9652 3.67602 5.88457 3.74652 5.804C3.82709 5.71336 3.89759 5.63284 3.97816 5.5422C4.10908 5.4012 4.24001 5.26017 4.38101 5.12925C4.53208 4.97818 4.68315 4.83719 4.83422 4.69619C4.98529 4.55519 5.14643 4.42424 5.30757 4.29331C5.38814 4.22281 5.46871 4.16238 5.54928 4.10195C5.71042 3.97103 5.88164 3.85018 6.05285 3.72932C6.22406 3.60847 6.39527 3.48764 6.56648 3.37685C6.73769 3.26607 6.91898 3.15528 7.10026 3.05456C7.1909 3.00421 7.28154 2.95383 7.37218 2.90347C7.46283 2.85311 7.55346 2.80279 7.64411 2.75244C7.73475 2.70208 7.8254 2.65171 7.92611 2.61142C8.01675 2.56107 8.11746 2.52077 8.2081 2.47041C8.39946 2.37977 8.59081 2.2992 8.78217 2.21863C8.87281 2.17834 8.96345 2.13807 9.06416 2.10786C9.07423 2.09779 9.0843 2.09778 9.09437 2.09778C9.18502 2.05749 9.28573 2.0273 9.37637 1.99709C9.46701 1.96688 9.56772 1.93663 9.65836 1.89634C9.76915 1.86613 9.86986 1.82587 9.98064 1.79565C10.0814 1.76544 10.1821 1.7352 10.2828 1.70498C10.3835 1.67477 10.4842 1.6446 10.595 1.62446C10.6957 1.59424 10.8065 1.57409 10.9072 1.55395C11.1187 1.50359 11.3302 1.46331 11.5417 1.4331C11.6424 1.41296 11.7532 1.39283 11.864 1.38276C12.0956 1.35254 12.3273 1.32231 12.5589 1.30217C12.7402 1.28203 12.9315 1.27198 13.1128 1.26191C13.2236 1.25183 13.3445 1.25182 13.4552 1.25182C13.566 1.25182 13.6869 1.24174 13.7977 1.24174H87.2173C87.3281 1.24174 87.449 1.24175 87.5598 1.25182C87.6504 1.25182 87.7511 1.26191 87.8418 1.26191C88.0533 1.27198 88.2748 1.29211 88.4863 1.31225H88.4964C88.6072 1.32232 88.7079 1.33237 88.8187 1.35251C88.9295 1.36258 89.0302 1.3827 89.141 1.39278C89.2518 1.40285 89.3525 1.42304 89.4632 1.44318C89.574 1.46332 89.6748 1.48346 89.7755 1.50361H89.7855C89.8862 1.52375 89.997 1.5439 90.0977 1.57411C90.1984 1.59426 90.2891 1.6144 90.3797 1.63454C90.3999 1.64461 90.42 1.64457 90.4402 1.65464C90.5308 1.67478 90.6214 1.705 90.7121 1.72515C90.8329 1.75536 90.9639 1.79563 91.0847 1.83591C91.1653 1.86613 91.2559 1.88629 91.3365 1.9165C91.5178 1.97693 91.7091 2.03736 91.8904 2.10786C92.0113 2.14814 92.1422 2.19852 92.253 2.24887C92.3436 2.28916 92.4242 2.31936 92.5148 2.35964C92.6156 2.39993 92.7062 2.44022 92.8069 2.49057C92.8976 2.53086 92.9983 2.58122 93.0889 2.6215C93.7637 2.95386 94.3982 3.33658 95.0024 3.76965C95.0729 3.82 95.1535 3.87033 95.224 3.93076C95.4859 4.13219 95.7477 4.33361 95.9894 4.55517C96.1002 4.64582 96.2009 4.74657 96.3117 4.84728C96.7448 5.25013 97.1476 5.67309 97.5102 6.12629C97.5807 6.20686 97.6411 6.28742 97.7016 6.36799C97.8325 6.53921 97.9634 6.71043 98.0843 6.88164C98.1447 6.97228 98.2051 7.05286 98.2656 7.1435C98.3663 7.29457 98.467 7.44566 98.5677 7.6068C98.618 7.68737 98.6583 7.76793 98.7087 7.84851C98.7993 7.99957 98.8799 8.15066 98.9605 8.30173C99.0008 8.37222 99.041 8.45277 99.0813 8.52326C99.2122 8.78512 99.3432 9.03693 99.454 9.30885C99.4842 9.37935 99.5144 9.44981 99.5446 9.52031C99.6554 9.78217 99.7561 10.0541 99.8468 10.3261C99.887 10.4268 99.9172 10.5275 99.9475 10.6282C100.129 11.2123 100.27 11.8166 100.37 12.4309C100.381 12.4914 100.391 12.5619 100.401 12.6324C100.421 12.7432 100.431 12.8439 100.441 12.9547C100.451 13.0654 100.471 13.1662 100.481 13.2769C100.491 13.3877 100.501 13.4985 100.511 13.6093C100.522 13.8107 100.532 14.0121 100.542 14.2136C100.552 14.3445 100.552 14.4754 100.552 14.6064V189.383H100.491Z" fill="#000"/>
<path d="M12.4579 202.657C12.3471 202.647 12.2464 202.637 12.1356 202.627H12.1255C11.914 202.597 11.7025 202.567 11.5011 202.537C10.2422 202.325 9.0437 201.932 7.92578 201.388C7.84521 201.348 7.77471 201.308 7.69414 201.278C7.49272 201.177 7.30136 201.066 7.11001 200.955C7.01936 200.905 6.9388 200.855 6.84816 200.804C6.41509 200.542 5.9921 200.25 5.58925 199.938C5.51875 199.878 5.44824 199.827 5.37774 199.767C5.16625 199.596 4.95475 199.414 4.75333 199.233C4.68283 199.173 4.6224 199.112 4.56197 199.052C4.4814 198.981 4.4109 198.911 4.3404 198.84C4.2699 198.77 4.1994 198.689 4.11883 198.619C4.06848 198.568 4.02819 198.518 3.97783 198.468C3.91741 198.407 3.85698 198.337 3.80662 198.276C3.4642 197.894 3.15199 197.491 2.84985 197.078C2.7995 197.007 2.74914 196.927 2.69878 196.856C2.53764 196.625 2.38658 196.383 2.24558 196.141C2.19522 196.051 2.14486 195.97 2.09451 195.879C1.72187 195.215 1.40966 194.52 1.15788 193.805C1.11759 193.704 1.08738 193.613 1.05717 193.513C0.896027 193.009 0.765093 192.506 0.66438 191.982C0.644237 191.881 0.624097 191.77 0.603955 191.67C0.483099 190.934 0.412598 190.179 0.412598 189.414V15.835C0.412598 8.69449 6.06259 2.84309 13.1226 2.51074C6.75751 2.84309 1.68158 8.12041 1.68158 14.556V190.652C1.67151 196.877 6.40502 202.013 12.4579 202.657Z" fill="url(#paint0_linear_12_638)"/>
<path d="M100.491 15.8351V189.384C100.491 190.814 100.26 192.193 99.8468 193.483C99.8166 193.583 99.7863 193.684 99.7461 193.775C99.7158 193.875 99.6756 193.966 99.6353 194.067C99.6051 194.137 99.5849 194.218 99.5547 194.288C99.4641 194.5 99.3734 194.721 99.2828 194.933C99.2425 195.023 99.1921 195.124 99.1519 195.215C99.0914 195.346 99.0209 195.477 98.9605 195.598C98.9202 195.688 98.8699 195.769 98.8195 195.849C98.7691 195.94 98.7188 196.031 98.6684 196.121C98.5274 196.363 98.3764 196.605 98.2152 196.846C98.1649 196.917 98.1145 196.997 98.0642 197.068C98.0037 197.149 97.9433 197.229 97.8829 197.32C97.8224 197.4 97.762 197.481 97.7016 197.561C97.6412 197.642 97.5707 197.723 97.5102 197.803C97.4498 197.884 97.3793 197.964 97.3088 198.045C97.1779 198.196 97.0369 198.357 96.9059 198.498C96.6944 198.73 96.4729 198.951 96.2413 199.163C96.1708 199.223 96.1002 199.284 96.0297 199.354C95.8686 199.495 95.7075 199.636 95.5362 199.767C95.4657 199.827 95.3953 199.878 95.3147 199.938C95.073 200.13 94.8212 200.301 94.5694 200.472C94.4888 200.532 94.3982 200.583 94.3076 200.643C94.1364 200.754 93.9551 200.855 93.7839 200.966C93.6932 201.016 93.6126 201.066 93.522 201.117C93.2299 201.278 92.9379 201.419 92.6357 201.55C92.5552 201.59 92.4746 201.62 92.394 201.65C92.3034 201.691 92.2027 201.731 92.112 201.771C92.0113 201.812 91.9207 201.852 91.82 201.882C91.6085 201.963 91.3869 202.043 91.1653 202.114C91.0847 202.144 91.0142 202.164 90.9337 202.184C90.6416 202.275 90.3495 202.345 90.0474 202.416C89.9467 202.436 89.8359 202.466 89.7352 202.486C89.6244 202.506 89.5136 202.527 89.4028 202.547C89.1913 202.587 88.9899 202.617 88.7784 202.637H88.7684C88.6576 202.647 88.5569 202.658 88.4461 202.668C94.4989 202.023 99.2324 196.887 99.2324 190.663V14.5661C99.2324 8.2313 94.3277 3.02444 88.1238 2.54102C95.0125 3.02444 100.491 8.80537 100.491 15.8351Z" fill="url(#paint1_linear_12_638)"/>
<path d="M100.491 189.384V190.653C100.491 198.005 94.509 203.987 87.157 203.987H13.7373C6.38524 203.987 0.392822 198.005 0.392822 190.653V189.384C0.392822 190.149 0.463324 190.904 0.584179 191.64C0.604322 191.74 0.624462 191.851 0.644604 191.952C0.745317 192.475 0.876243 192.979 1.03738 193.483C1.0676 193.583 1.09781 193.674 1.1381 193.775C1.38988 194.5 1.70209 195.195 2.07473 195.849C2.12508 195.94 2.17544 196.031 2.2258 196.111C2.36679 196.353 2.51786 196.595 2.679 196.826C2.72936 196.897 2.77972 196.977 2.83007 197.048C3.12214 197.461 3.44443 197.864 3.78685 198.246C3.84728 198.307 3.89763 198.377 3.95806 198.438C4.00842 198.488 4.0487 198.538 4.09906 198.589C4.16956 198.659 4.24006 198.74 4.32063 198.81C4.39112 198.881 4.4717 198.951 4.5422 199.022C4.60262 199.082 4.67312 199.143 4.73354 199.203C4.93497 199.384 5.14647 199.566 5.35797 199.737C5.42847 199.797 5.49896 199.848 5.56946 199.908C5.97231 200.22 6.39531 200.512 6.82837 200.774C6.91902 200.825 6.99959 200.875 7.09023 200.925C7.28158 201.036 7.48301 201.137 7.67437 201.247C7.75494 201.288 7.82543 201.328 7.906 201.358C9.02391 201.902 10.2224 202.285 11.4813 202.506C11.6827 202.547 11.8942 202.577 12.1057 202.597H12.1158C12.3273 202.627 12.5388 202.647 12.7604 202.657C12.8711 202.668 12.9819 202.678 13.0927 202.678C13.2941 202.688 13.5056 202.698 13.7171 202.698H87.1368C87.3483 202.698 87.5497 202.688 87.7612 202.678C87.872 202.668 87.9828 202.668 88.0936 202.657C88.2648 202.647 88.4461 202.627 88.6173 202.607C88.6576 202.607 88.6979 202.597 88.7381 202.597H88.7482C88.9597 202.567 89.1712 202.537 89.3726 202.506C89.4834 202.486 89.6043 202.466 89.705 202.446C89.8158 202.426 89.9165 202.406 90.0172 202.375C90.3193 202.305 90.6114 202.234 90.9035 202.144C90.9841 202.124 91.0646 202.093 91.1351 202.073C91.3567 202.003 91.5783 201.932 91.7898 201.842C91.8905 201.801 91.9811 201.771 92.0818 201.731C92.1825 201.691 92.2732 201.65 92.3638 201.61C92.4444 201.58 92.525 201.54 92.6055 201.509C92.9077 201.378 93.1997 201.227 93.4918 201.076C93.5824 201.026 93.663 200.986 93.7537 200.925C93.9349 200.825 94.1061 200.724 94.2774 200.603C94.368 200.553 94.4486 200.492 94.5392 200.432C94.791 200.261 95.0428 200.079 95.2845 199.898C95.355 199.838 95.4356 199.787 95.5061 199.727C95.6672 199.586 95.8384 199.455 95.9996 199.314C96.0701 199.253 96.1406 199.193 96.2111 199.122C96.4427 198.911 96.6643 198.689 96.8757 198.458C97.0167 198.307 97.1578 198.156 97.2786 198.005C97.3491 197.924 97.4095 197.843 97.48 197.763C97.5505 197.682 97.611 197.602 97.6714 197.521C97.7318 197.441 97.7922 197.36 97.8527 197.279C97.9131 197.199 97.9735 197.118 98.034 197.028C98.0843 196.957 98.1347 196.877 98.185 196.806C98.3462 196.564 98.4972 196.323 98.6382 196.081C98.6886 195.99 98.7389 195.9 98.7893 195.809C98.8397 195.728 98.8799 195.638 98.9303 195.557C99.0008 195.426 99.0612 195.305 99.1217 195.175C99.172 195.084 99.2123 194.993 99.2526 194.893C99.3533 194.681 99.4439 194.47 99.5245 194.248C99.5547 194.177 99.5849 194.107 99.6051 194.026C99.6454 193.926 99.6756 193.835 99.7159 193.734C99.7561 193.634 99.7863 193.543 99.8166 193.442C100.26 192.193 100.491 190.814 100.491 189.384Z" fill="url(#paint2_linear_12_638)"/>
<path d="M100.491 14.5655V15.8345C100.491 8.90545 95.1831 3.20511 88.4253 2.56055C88.3145 2.55048 88.2138 2.54038 88.103 2.5303C87.9922 2.52023 87.8814 2.5102 87.7706 2.5102C87.5692 2.50013 87.3577 2.49004 87.1563 2.49004H13.7366C13.5251 2.49004 13.3237 2.50013 13.1223 2.5102H13.1122C6.04214 2.84256 0.402222 8.69395 0.402222 15.8345V14.5655C0.402222 14.4346 0.402216 14.3036 0.412287 14.1727C0.412287 14.072 0.422361 13.9814 0.422361 13.8807C0.432432 13.6692 0.452578 13.4577 0.47272 13.2462C0.482792 13.1354 0.492864 13.0246 0.513006 12.9239C0.523078 12.8635 0.533146 12.8131 0.533146 12.7527C0.543217 12.6822 0.553287 12.6117 0.563358 12.5412C0.583501 12.4304 0.593575 12.3196 0.613718 12.2089C0.643932 12.0175 0.684217 11.8262 0.724503 11.6449C0.744645 11.5542 0.764787 11.4636 0.795001 11.3628C0.8655 11.0808 0.935995 10.819 1.02664 10.5471C1.05685 10.4665 1.08707 10.3759 1.10721 10.2953C1.14749 10.1946 1.17771 10.0838 1.21799 9.98308C1.24821 9.89244 1.27842 9.81187 1.3187 9.7313C1.34892 9.6608 1.36906 9.59028 1.39928 9.51978C1.42949 9.43921 1.46977 9.34857 1.49999 9.268C1.5302 9.20757 1.55035 9.14715 1.58056 9.08672C1.62085 8.99608 1.66113 8.90548 1.71148 8.81484C1.78198 8.6537 1.86256 8.5026 1.9532 8.34146C1.99349 8.26089 2.03377 8.18033 2.08412 8.09976C2.13448 8.00911 2.18484 7.91845 2.2352 7.82781C2.60783 7.20339 3.02076 6.59916 3.49411 6.04523C3.56461 5.96466 3.62503 5.88404 3.69553 5.80347C3.7761 5.71283 3.8466 5.63231 3.92717 5.54167C4.0581 5.40067 4.18903 5.25964 4.33003 5.12871C4.4811 4.97764 4.63216 4.83665 4.78323 4.69566C4.9343 4.55466 5.09544 4.42371 5.25658 4.29278C5.33715 4.22228 5.41772 4.16185 5.49829 4.10142C5.65943 3.9705 5.83064 3.84964 6.00186 3.72879C6.17307 3.60793 6.34428 3.4871 6.51549 3.37632C6.68671 3.26553 6.86799 3.15474 7.04927 3.05403C7.13991 3.00367 7.23055 2.95329 7.32119 2.90294C7.41183 2.85258 7.50248 2.80226 7.59312 2.7519C7.68376 2.70155 7.7744 2.65118 7.87512 2.61089C7.96576 2.56053 8.06647 2.52023 8.15711 2.46988C8.34847 2.37924 8.53982 2.29867 8.73117 2.2181C8.82182 2.17781 8.91246 2.13754 9.01317 2.10733C9.02324 2.09726 9.03332 2.09725 9.04339 2.09725C9.13403 2.05696 9.23474 2.02677 9.32538 1.99656C9.41603 1.96634 9.51674 1.93609 9.60738 1.89581C9.71816 1.86559 9.81888 1.82533 9.92966 1.79512C10.0304 1.76491 10.1311 1.73466 10.2318 1.70445C10.3325 1.67424 10.4332 1.64407 10.544 1.62392C10.6447 1.59371 10.7555 1.57356 10.8562 1.55342C11.0677 1.50306 11.2792 1.46278 11.4907 1.43257C11.5914 1.41243 11.7022 1.39229 11.813 1.38222C12.0446 1.35201 12.2763 1.32178 12.5079 1.30164C12.6892 1.28149 12.8805 1.27144 13.0618 1.26137C13.1726 1.2513 13.2935 1.25129 13.4043 1.25129C13.515 1.25129 13.6359 1.24121 13.7467 1.24121H87.1664C87.2771 1.24121 87.398 1.24122 87.5088 1.25129C87.5994 1.25129 87.7002 1.26137 87.7908 1.26137C88.0023 1.27144 88.2239 1.29157 88.4354 1.31172H88.4454C88.5562 1.32179 88.6569 1.33184 88.7677 1.35198C88.8785 1.36205 88.9792 1.38217 89.09 1.39224C89.2008 1.40231 89.3015 1.42251 89.4123 1.44265C89.5231 1.46279 89.6238 1.48293 89.7245 1.50307H89.7345C89.8353 1.52322 89.946 1.54337 90.0468 1.57358C90.1475 1.59372 90.2381 1.61386 90.3287 1.63401C90.3489 1.64408 90.369 1.64404 90.3892 1.65411C90.4798 1.67425 90.5705 1.70447 90.6611 1.72461C90.782 1.75483 90.9129 1.7951 91.0338 1.83538C91.1143 1.8656 91.205 1.88576 91.2855 1.91597C91.4668 1.9764 91.6582 2.03683 91.8394 2.10733C91.9603 2.14761 92.0912 2.19798 92.202 2.24834C92.2927 2.28862 92.3732 2.31882 92.4639 2.35911C92.5646 2.39939 92.6552 2.43968 92.7559 2.49004C92.8466 2.53033 92.9473 2.58069 93.0379 2.62097C93.7127 2.95332 94.3472 3.33605 94.9515 3.76911C95.022 3.81947 95.1025 3.8698 95.173 3.93023C95.4349 4.13165 95.6968 4.33307 95.9385 4.55464C96.0492 4.64528 96.15 4.74604 96.2607 4.84675C96.6938 5.2496 97.0967 5.67255 97.4592 6.12576C97.5297 6.20633 97.5902 6.28689 97.6506 6.36746C97.7815 6.53867 97.9124 6.7099 98.0333 6.88111C98.0937 6.97175 98.1541 7.05233 98.2146 7.14297C98.3153 7.29404 98.416 7.44513 98.5167 7.60627C98.5671 7.68684 98.6074 7.7674 98.6577 7.84797C98.7483 7.99904 98.8289 8.15012 98.9095 8.30119C98.9498 8.37169 98.9901 8.45223 99.0303 8.52273C99.1613 8.78459 99.2922 9.0364 99.403 9.30832C99.4332 9.37882 99.4634 9.44928 99.4936 9.51978C99.6044 9.78163 99.7051 10.0536 99.7958 10.3255C99.8361 10.4262 99.8663 10.5269 99.8965 10.6277C100.078 11.2118 100.219 11.816 100.319 12.4304C100.33 12.4908 100.34 12.5613 100.35 12.6318C100.37 12.7426 100.38 12.8433 100.39 12.9541C100.4 13.0649 100.42 13.1656 100.43 13.2764C100.44 13.3872 100.45 13.4979 100.46 13.6087C100.471 13.8101 100.481 14.0116 100.491 14.213C100.491 14.3037 100.491 14.4346 100.491 14.5655Z" fill="url(#paint3_linear_12_638)"/>
<path d="M87.7712 2.51064C87.5698 2.50057 87.3583 2.49048 87.1468 2.49048H13.7271C13.5156 2.49048 13.3142 2.50057 13.1128 2.51064H13.1027C6.73767 2.84299 1.66174 8.12031 1.66174 14.5559V190.652C1.66174 196.987 6.56646 202.194 12.7704 202.677C12.8812 202.688 12.9919 202.698 13.1027 202.698C13.3042 202.708 13.5156 202.718 13.7271 202.718H87.1468C87.3583 202.718 87.5598 202.708 87.7712 202.698C87.882 202.688 87.9928 202.688 88.1036 202.677C94.3176 202.184 99.2122 196.977 99.2122 190.652V14.5659C99.2223 8.12032 94.1363 2.84299 87.7712 2.51064ZM98.195 190.652C98.195 196.373 93.7234 201.217 88.0331 201.67C87.9324 201.68 87.8317 201.69 87.7209 201.69C87.5295 201.701 87.3382 201.711 87.1468 201.711H13.7271C13.5358 201.711 13.3444 201.701 13.1531 201.69C13.0524 201.69 12.9517 201.68 12.8509 201.67C7.1506 201.217 2.67894 196.383 2.67894 190.652V14.5659C2.67894 8.69438 7.26138 3.85008 13.1329 3.53787H13.143H13.1732C13.3545 3.5278 13.5459 3.52785 13.7372 3.52785H87.1569C87.3483 3.52785 87.5396 3.53787 87.7209 3.53787H87.741C93.6126 3.85008 98.2051 8.69438 98.2051 14.5659V190.652H98.195Z" fill="#404040"/>
<path d="M98.195 14.6368V190.723C98.195 191.811 98.0339 192.868 97.7317 193.876C97.49 194.671 97.1576 195.437 96.7548 196.152C96.6742 196.303 96.5836 196.444 96.4929 196.585C96.352 196.796 96.211 197.008 96.07 197.209C95.647 197.783 95.1736 198.317 94.6499 198.8C95.6167 197.118 96.1707 195.155 96.1707 193.09V191.056C96.1807 190.935 96.1807 190.814 96.1807 190.693V14.6167C96.1807 14.4958 96.1807 14.3649 96.1707 14.244V12.26C96.1707 10.1652 95.6167 8.20125 94.6499 6.50928C96.8354 8.53361 98.195 11.4341 98.195 14.6368Z" fill="url(#paint4_linear_12_638)"/>
<path d="M26.014 10.5981C25.9838 10.5478 25.9637 10.4976 25.9436 10.4473C25.9335 10.4272 25.9335 10.4071 25.9235 10.387C25.9536 10.4674 25.9838 10.5377 26.014 10.5981Z" fill="black"/>
<path d="M74.9604 10.3967C74.9503 10.4168 74.9503 10.4269 74.9402 10.4571C74.9201 10.5073 74.9 10.5576 74.8699 10.6079C74.9101 10.5375 74.9302 10.4671 74.9604 10.3967Z" fill="black"/>
<path d="M30.9488 14.0123C31.0292 14.0223 31.1096 14.0223 31.1901 14.0223C31.1499 14.0223 31.0996 14.0223 31.0594 14.0223C31.0091 14.0223 30.9689 14.0223 30.9186 14.0123C30.8683 14.0123 30.8181 14.0022 30.7678 14.0022C30.7577 14.0022 30.7577 14.0022 30.7477 14.0022C30.808 14.0022 30.8784 14.0022 30.9488 14.0123Z" fill="black"/>
<path d="M70.1458 13.9922C70.1357 13.9922 70.1357 13.9922 70.1257 13.9922C70.0754 13.9922 70.0251 14.0023 69.9749 14.0023C69.9246 14.0123 69.8844 14.0123 69.8341 14.0123C69.7939 14.0123 69.7436 14.0123 69.7034 14.0123C69.7838 14.0123 69.8643 14.0023 69.9447 14.0023C70.005 14.0023 70.0754 14.0022 70.1458 13.9922Z" fill="black"/>
<path d="M25.8427 10.1845C25.8327 10.1745 25.8327 10.1745 25.8427 10.1845C25.8327 10.1545 25.8227 10.1245 25.8127 10.0945C25.8227 10.1245 25.8327 10.1545 25.8427 10.1845Z" fill="black"/>
<path d="M26.014 10.5976C25.9838 10.5473 25.9637 10.4971 25.9436 10.4468C25.9335 10.4267 25.9335 10.4066 25.9235 10.3865C25.9536 10.4669 25.9838 10.5373 26.014 10.5976Z" fill="black"/>
<path d="M26.7287 11.7758C26.6987 11.7458 26.6787 11.7158 26.6587 11.6858C26.6587 11.6958 26.6687 11.6958 26.6687 11.6958C26.6887 11.7258 26.7087 11.7558 26.7287 11.7758Z" fill="black"/>
<path d="M26.9607 12.0482C26.9305 12.018 26.9003 11.9878 26.8701 11.9476C26.85 11.9275 26.84 11.9073 26.8198 11.8872C26.8701 11.9476 26.9104 11.9979 26.9607 12.0482Z" fill="black"/>
<path d="M27.0712 12.1686C27.0512 12.1486 27.0312 12.1286 27.0112 12.1086C27.0312 12.1286 27.0512 12.1486 27.0712 12.1686Z" fill="black"/>
<path d="M27.7556 12.7926C27.7054 12.7625 27.6652 12.7224 27.615 12.6822C27.5849 12.6621 27.5548 12.6421 27.5347 12.6119C27.5146 12.5919 27.4946 12.5818 27.4745 12.5618C27.5247 12.6019 27.5749 12.6421 27.615 12.6822C27.6552 12.7224 27.7054 12.7525 27.7556 12.7926Z" fill="black"/>
<path d="M27.837 12.864C27.867 12.894 27.897 12.914 27.937 12.934C27.927 12.924 27.917 12.924 27.907 12.914C27.887 12.894 27.857 12.884 27.837 12.864Z" fill="black"/>
<path d="M28.2498 13.1361C28.2196 13.1159 28.1794 13.0958 28.1492 13.0757C28.1492 13.0757 28.1492 13.0757 28.1391 13.0757C28.119 13.0656 28.0989 13.0455 28.0787 13.0354C28.1391 13.0656 28.1894 13.1059 28.2498 13.1361Z" fill="black"/>
<path d="M29.3471 13.6798C29.2668 13.6496 29.1964 13.6296 29.1261 13.5995C29.1161 13.5894 29.096 13.5894 29.0859 13.5793C29.1663 13.6095 29.2567 13.6396 29.3471 13.6798Z" fill="black"/>
<path d="M29.5994 13.7603C29.6901 13.7906 29.7807 13.8208 29.8814 13.8409C29.821 13.8309 29.7606 13.8107 29.6901 13.7905C29.6498 13.7805 29.6297 13.7704 29.5994 13.7603C29.5592 13.7503 29.5189 13.7402 29.4786 13.7201C29.4383 13.71 29.3879 13.6898 29.3477 13.6697C29.4282 13.6999 29.5088 13.7301 29.5994 13.7603Z" fill="black"/>
<path d="M30.4451 13.9515C30.5256 13.9616 30.6061 13.9716 30.6866 13.9817C30.6161 13.9716 30.5457 13.9716 30.4752 13.9515C30.4652 13.9616 30.4551 13.9616 30.4451 13.9515C30.4149 13.9515 30.3847 13.9414 30.3444 13.9414C30.284 13.9314 30.2136 13.9213 30.1532 13.9113C30.0727 13.8911 29.9922 13.8811 29.9117 13.8509C29.9016 13.8509 29.8815 13.8408 29.8715 13.8408C30.0627 13.8811 30.2539 13.9213 30.4451 13.9515Z" fill="black"/>
<path d="M30.9487 14.0123H30.9185C30.8984 14.0123 30.8783 14.0123 30.8582 14.0123C30.828 14.0123 30.7878 14.0022 30.7577 14.0022C30.7476 14.0022 30.7476 14.0022 30.7375 14.0022C30.8079 14.0022 30.8783 14.0022 30.9487 14.0123Z" fill="black"/>
<path d="M69.9451 14.0123C70.0155 14.0123 70.0858 14.0022 70.1562 14.0022C70.1462 14.0022 70.1462 14.0022 70.1361 14.0022C70.1059 14.0022 70.0657 14.0123 70.0356 14.0123C70.0154 14.0123 69.9953 14.0123 69.9752 14.0123H69.9451Z" fill="black"/>
<path d="M70.4384 13.9518C70.6296 13.9216 70.8208 13.8814 71.012 13.8311C71.0019 13.8411 70.9818 13.8411 70.9717 13.8411C70.8912 13.8613 70.8107 13.8814 70.7302 13.9015C70.6699 13.9116 70.5994 13.9317 70.539 13.9317C70.5088 13.9518 70.4686 13.9518 70.4384 13.9518C70.4283 13.9518 70.4183 13.9619 70.4082 13.9619C70.3378 13.9719 70.2673 13.982 70.1969 13.992C70.2774 13.982 70.3579 13.9719 70.4384 13.9518Z" fill="black"/>
<path d="M71.5465 13.6799C71.5062 13.7001 71.4659 13.7101 71.4155 13.7303C71.3753 13.7403 71.335 13.7605 71.2947 13.7706C71.2645 13.7807 71.2343 13.7907 71.2041 13.8008C71.1436 13.8209 71.0832 13.831 71.0127 13.8512C71.1033 13.831 71.194 13.8008 71.2947 13.7706C71.3753 13.7303 71.4558 13.7001 71.5465 13.6799Z" fill="black"/>
<path d="M71.5464 13.6797C71.6367 13.6496 71.7271 13.6095 71.8174 13.5793C71.8074 13.5894 71.7873 13.5894 71.7773 13.5994C71.6869 13.6195 71.6167 13.6496 71.5464 13.6797Z" fill="black"/>
<path d="M72.6342 13.1361C72.6945 13.1059 72.7448 13.0656 72.8052 13.0354C72.7851 13.0455 72.765 13.0656 72.7448 13.0757C72.7448 13.0757 72.7448 13.0757 72.7348 13.0757C72.7046 13.1059 72.6744 13.126 72.6342 13.1361Z" fill="black"/>
<path d="M73.0463 12.864C73.0263 12.884 72.9963 12.904 72.9763 12.924C72.9663 12.934 72.9563 12.934 72.9463 12.944C72.9863 12.904 73.0163 12.884 73.0463 12.864Z" fill="black"/>
<path d="M73.4188 12.5618C73.3987 12.5818 73.3786 12.5919 73.3585 12.6119C73.3284 12.6421 73.2983 12.6621 73.2782 12.6822C73.2381 12.7224 73.1879 12.7625 73.1377 12.7926C73.1879 12.7525 73.228 12.7224 73.2782 12.6822C73.3184 12.6421 73.3686 12.6019 73.4188 12.5618Z" fill="black"/>
<path d="M73.8825 12.1086C73.8625 12.1286 73.8425 12.1486 73.8225 12.1686C73.8425 12.1486 73.8625 12.1286 73.8825 12.1086Z" fill="black"/>
<path d="M74.0636 11.8972C74.0536 11.9172 74.0336 11.9372 74.0136 11.9572C74.0036 11.9672 73.9936 11.9872 73.9736 11.9972C74.0036 11.9672 74.0336 11.9272 74.0636 11.8972Z" fill="black"/>
<path d="M74.2249 11.6858C74.2049 11.7158 74.1749 11.7458 74.1549 11.7758C74.1749 11.7458 74.1949 11.7258 74.2149 11.6958C74.2149 11.6958 74.2249 11.6958 74.2249 11.6858Z" fill="black"/>
<path d="M74.9605 10.3965C74.9504 10.4166 74.9504 10.4266 74.9404 10.4568C74.9203 10.5071 74.9002 10.5574 74.87 10.6077C74.9102 10.5373 74.9303 10.4669 74.9605 10.3965Z" fill="black"/>
<path d="M75.0811 10.0945C75.0711 10.1245 75.0611 10.1445 75.0511 10.1745C75.0511 10.1745 75.0511 10.1845 75.0411 10.1845C75.0611 10.1545 75.0711 10.1245 75.0811 10.0945Z" fill="black"/>
<path d="M96.1606 191.075V193.11C96.1606 195.174 95.6067 197.138 94.6398 198.82C92.8774 200.452 90.5811 201.529 88.0432 201.731C87.9424 201.741 87.8417 201.751 87.7309 201.751C87.5396 201.761 87.3482 201.771 87.1569 201.771H13.7372C13.5458 201.771 13.3545 201.761 13.1631 201.751C13.0624 201.751 12.9617 201.741 12.861 201.731C12.72 201.721 12.579 201.701 12.438 201.69C10.0612 201.408 7.92605 200.371 6.25422 198.83C5.27731 197.138 4.72339 195.174 4.72339 193.1V190.723C4.72339 193.432 5.95208 195.91 7.89584 197.571C9.29575 198.77 11.0683 199.555 13.0221 199.706C13.0826 199.717 13.1531 199.717 13.2135 199.717H13.2437H13.2739C13.425 199.727 13.5861 199.727 13.7473 199.727H87.1669C87.318 199.727 87.4792 199.717 87.6302 199.717H87.6604H87.6906C87.7611 199.717 87.8317 199.706 87.9022 199.706C92.404 199.334 95.9793 195.587 96.1606 191.075Z" fill="url(#paint5_linear_12_638)"/>
<path d="M98.1949 14.6363V190.723C98.1949 191.81 98.0338 192.868 97.7317 193.875C97.49 194.671 97.1576 195.436 96.7547 196.151C96.6742 196.302 96.5835 196.443 96.4929 196.584C96.362 196.796 96.221 197.007 96.0699 197.209C95.6469 197.793 95.1635 198.337 94.6398 198.82C94.6498 198.81 94.6499 198.81 94.6499 198.8C95.6167 197.118 96.1706 195.154 96.1706 193.089V12.2595C96.1706 10.1647 95.6167 8.20077 94.6499 6.50879C96.8353 8.53312 98.1949 11.4337 98.1949 14.6363Z" fill="url(#paint6_linear_12_638)"/>
<defs>
<linearGradient id="paint0_linear_12_638" x1="0.395476" y1="102.585" x2="1.87354" y2="102.585" gradientUnits="userSpaceOnUse">
<stop stop-color="#666666"/>
<stop offset="0.0575" stop-color="#727272"/>
<stop offset="0.3311" stop-color="#A8A8A8"/>
<stop offset="0.5675" stop-color="#D0D0D0"/>
<stop offset="0.7551" stop-color="#E8E8E8"/>
<stop offset="0.8704" stop-color="#F1F1F1"/>
<stop offset="0.9471" stop-color="#F7F7F7"/>
<stop offset="1" stop-color="white"/>
</linearGradient>
<linearGradient id="paint1_linear_12_638" x1="99.248" y1="102.596" x2="100.713" y2="102.596" gradientUnits="userSpaceOnUse">
<stop stop-color="white"/>
<stop offset="0.0529" stop-color="#F7F7F7"/>
<stop offset="0.1296" stop-color="#F1F1F1"/>
<stop offset="0.2449" stop-color="#E8E8E8"/>
<stop offset="0.4325" stop-color="#D0D0D0"/>
<stop offset="0.6689" stop-color="#A8A8A8"/>
<stop offset="0.9425" stop-color="#727272"/>
<stop offset="1" stop-color="#666666"/>
</linearGradient>
<linearGradient id="paint2_linear_12_638" x1="50.4434" y1="203.995" x2="50.4434" y2="192.292" gradientUnits="userSpaceOnUse">
<stop stop-color="#F1F1F1"/>
<stop offset="0.1164" stop-color="#E3E3E3"/>
<stop offset="0.3358" stop-color="#BFBFBF"/>
<stop offset="0.6347" stop-color="#848484"/>
<stop offset="1" stop-color="#333333"/>
</linearGradient>
<linearGradient id="paint3_linear_12_638" x1="50.4427" y1="12.3975" x2="50.4427" y2="-2.21425" gradientUnits="userSpaceOnUse">
<stop stop-color="#333333"/>
<stop offset="0.0736" stop-color="#4C4C4C"/>
<stop offset="0.2508" stop-color="#828282"/>
<stop offset="0.4239" stop-color="#AFAFAF"/>
<stop offset="0.5891" stop-color="#D2D2D2"/>
<stop offset="0.7442" stop-color="#EBEBEB"/>
<stop offset="0.8854" stop-color="#FAFAFA"/>
<stop offset="1" stop-color="white"/>
</linearGradient>
<linearGradient id="paint4_linear_12_638" x1="94.6379" y1="102.662" x2="98.196" y2="102.662" gradientUnits="userSpaceOnUse">
<stop stop-color="#F1F1F1"/>
<stop offset="0.00119236" stop-color="#F0F0F0"/>
<stop offset="0.1385" stop-color="#B7B7B7"/>
<stop offset="0.2715" stop-color="#888888"/>
<stop offset="0.397" stop-color="#636363"/>
<stop offset="0.5134" stop-color="#494949"/>
<stop offset="0.6172" stop-color="#393939"/>
<stop offset="0.6978" stop-color="#333333"/>
</linearGradient>
<linearGradient id="paint5_linear_12_638" x1="4.73074" y1="196.233" x2="96.1585" y2="196.233" gradientUnits="userSpaceOnUse">
<stop/>
<stop offset="0.1045" stop-color="#141414"/>
<stop offset="0.2593" stop-color="#2C2C2C"/>
<stop offset="0.4027" stop-color="#3B3B3B"/>
<stop offset="0.5229" stop-color="#404040"/>
<stop offset="0.6306" stop-color="#393939"/>
<stop offset="0.7927" stop-color="#242424"/>
<stop offset="0.9882" stop-color="#020202"/>
<stop offset="1"/>
</linearGradient>
<linearGradient id="paint6_linear_12_638" x1="94.6277" y1="102.672" x2="98.1959" y2="102.672" gradientUnits="userSpaceOnUse">
<stop stop-color="#0A0A0A"/>
<stop offset="0.356" stop-color="#1A1A1A"/>
<stop offset="1" stop-color="#404040"/>
</linearGradient>
</defs>
</svg>
