<svg width="256" height="337" viewBox="0 0 256 337" fill="none" xmlns="http://www.w3.org/2000/svg">
<path d="M13.0528 336.172H242.698C249.879 336.172 255.71 330.341 255.71 323.16V13.4581C255.71 6.2773 249.879 0.446045 242.698 0.446045H13.0528C5.87192 0.446045 0.0406494 6.2773 0.0406494 13.4581V323.16C0.0406494 330.331 5.88199 336.172 13.0528 336.172ZM13.0528 326.867C11.0083 326.867 9.33644 325.205 9.33644 323.15V13.4581C9.33644 11.4137 10.9982 9.74182 13.0528 9.74182H242.698C244.743 9.74182 246.415 11.4036 246.415 13.4581V323.16C246.415 325.205 244.753 326.877 242.698 326.877H13.0528V326.867Z" fill="#030303"/>
</svg>
