<svg width="139" height="24" viewBox="0 0 139 24" fill="none" xmlns="http://www.w3.org/2000/svg">
<path d="M14.52 1.192V19H11.64V17.344C11.144 17.952 10.528 18.408 9.792 18.712C9.072 19.016 8.272 19.168 7.392 19.168C6.16 19.168 5.048 18.896 4.056 18.352C3.08 17.808 2.312 17.04 1.752 16.048C1.192 15.04 0.912 13.888 0.912 12.592C0.912 11.296 1.192 10.152 1.752 9.16C2.312 8.168 3.08 7.4 4.056 6.856C5.048 6.312 6.16 6.04 7.392 6.04C8.24 6.04 9.016 6.184 9.72 6.472C10.424 6.76 11.024 7.192 11.52 7.768V1.192H14.52ZM7.752 16.6C8.472 16.6 9.12 16.44 9.696 16.12C10.272 15.784 10.728 15.312 11.064 14.704C11.4 14.096 11.568 13.392 11.568 12.592C11.568 11.792 11.4 11.088 11.064 10.48C10.728 9.872 10.272 9.408 9.696 9.088C9.12 8.752 8.472 8.584 7.752 8.584C7.032 8.584 6.384 8.752 5.808 9.088C5.232 9.408 4.776 9.872 4.44 10.48C4.104 11.088 3.936 11.792 3.936 12.592C3.936 13.392 4.104 14.096 4.44 14.704C4.776 15.312 5.232 15.784 5.808 16.12C6.384 16.44 7.032 16.6 7.752 16.6ZM18.4446 6.184H21.4446V19H18.4446V6.184ZM19.9566 4.072C19.4126 4.072 18.9566 3.904 18.5886 3.568C18.2206 3.216 18.0366 2.784 18.0366 2.272C18.0366 1.76 18.2206 1.336 18.5886 0.999999C18.9566 0.647999 19.4126 0.472 19.9566 0.472C20.5006 0.472 20.9566 0.639999 21.3246 0.975999C21.6926 1.296 21.8766 1.704 21.8766 2.2C21.8766 2.728 21.6926 3.176 21.3246 3.544C20.9726 3.896 20.5166 4.072 19.9566 4.072ZM38.1021 6.184V17.056C38.1021 21.568 35.7981 23.824 31.1901 23.824C29.9581 23.824 28.7901 23.664 27.6861 23.344C26.5821 23.04 25.6701 22.592 24.9501 22L26.2941 19.744C26.8541 20.208 27.5581 20.576 28.4061 20.848C29.2701 21.136 30.1421 21.28 31.0221 21.28C32.4301 21.28 33.4621 20.96 34.1181 20.32C34.7741 19.68 35.1021 18.704 35.1021 17.392V16.72C34.5901 17.28 33.9661 17.704 33.2301 17.992C32.4941 18.28 31.6861 18.424 30.8061 18.424C29.5901 18.424 28.4861 18.168 27.4941 17.656C26.5181 17.128 25.7421 16.392 25.1661 15.448C24.6061 14.504 24.3261 13.424 24.3261 12.208C24.3261 10.992 24.6061 9.92 25.1661 8.992C25.7421 8.048 26.5181 7.32 27.4941 6.808C28.4861 6.296 29.5901 6.04 30.8061 6.04C31.7341 6.04 32.5741 6.192 33.3261 6.496C34.0941 6.8 34.7341 7.264 35.2461 7.888V6.184H38.1021ZM31.2621 15.88C32.3981 15.88 33.3261 15.544 34.0461 14.872C34.7821 14.184 35.1501 13.296 35.1501 12.208C35.1501 11.136 34.7821 10.264 34.0461 9.592C33.3261 8.92 32.3981 8.584 31.2621 8.584C30.1101 8.584 29.1661 8.92 28.4301 9.592C27.7101 10.264 27.3501 11.136 27.3501 12.208C27.3501 13.296 27.7101 14.184 28.4301 14.872C29.1661 15.544 30.1101 15.88 31.2621 15.88ZM42.0461 6.184H45.0461V19H42.0461V6.184ZM43.5581 4.072C43.0141 4.072 42.5581 3.904 42.1901 3.568C41.8221 3.216 41.6381 2.784 41.6381 2.272C41.6381 1.76 41.8221 1.336 42.1901 0.999999C42.5581 0.647999 43.0141 0.472 43.5581 0.472C44.1021 0.472 44.5581 0.639999 44.9261 0.975999C45.2941 1.296 45.4781 1.704 45.4781 2.2C45.4781 2.728 45.2941 3.176 44.9261 3.544C44.5741 3.896 44.1181 4.072 43.5581 4.072ZM56.6876 18.304C56.3356 18.592 55.9036 18.808 55.3916 18.952C54.8956 19.096 54.3676 19.168 53.8076 19.168C52.3996 19.168 51.3116 18.8 50.5436 18.064C49.7756 17.328 49.3916 16.256 49.3916 14.848V8.68H47.2796V6.28H49.3916V3.352H52.3916V6.28H55.8236V8.68H52.3916V14.776C52.3916 15.4 52.5436 15.88 52.8476 16.216C53.1516 16.536 53.5916 16.696 54.1676 16.696C54.8396 16.696 55.3996 16.52 55.8476 16.168L56.6876 18.304ZM64.0515 6.04C65.9395 6.04 67.3795 6.496 68.3715 7.408C69.3795 8.304 69.8835 9.664 69.8835 11.488V19H67.0515V17.44C66.6835 18 66.1555 18.432 65.4675 18.736C64.7955 19.024 63.9795 19.168 63.0195 19.168C62.0595 19.168 61.2195 19.008 60.4995 18.688C59.7795 18.352 59.2195 17.896 58.8195 17.32C58.4355 16.728 58.2435 16.064 58.2435 15.328C58.2435 14.176 58.6675 13.256 59.5155 12.568C60.3795 11.864 61.7315 11.512 63.5715 11.512H66.8835V11.32C66.8835 10.424 66.6115 9.736 66.0675 9.256C65.5395 8.776 64.7475 8.536 63.6915 8.536C62.9715 8.536 62.2595 8.648 61.5555 8.872C60.8675 9.096 60.2835 9.408 59.8035 9.808L58.6275 7.624C59.2995 7.112 60.1075 6.72 61.0515 6.448C61.9955 6.176 62.9955 6.04 64.0515 6.04ZM63.6435 16.984C64.3955 16.984 65.0595 16.816 65.6355 16.48C66.2275 16.128 66.6435 15.632 66.8835 14.992V13.504H63.7875C62.0595 13.504 61.1955 14.072 61.1955 15.208C61.1955 15.752 61.4115 16.184 61.8435 16.504C62.2755 16.824 62.8755 16.984 63.6435 16.984ZM73.7336 1.192H76.7336V19H73.7336V1.192ZM92.5119 3.448C91.2479 3.448 90.6159 4.136 90.6159 5.512V6.28H94.1439V8.68H90.7119V19H87.7119V8.68H85.5999V6.28H87.7119V5.464C87.7119 4.088 88.1119 3.008 88.9119 2.224C89.7119 1.424 90.8399 1.024 92.2959 1.024C93.4479 1.024 94.3519 1.256 95.0079 1.72L94.1679 3.976C93.6559 3.624 93.1039 3.448 92.5119 3.448ZM96.1599 1.192H99.1599V19H96.1599V1.192ZM108.861 19.168C107.565 19.168 106.397 18.888 105.357 18.328C104.317 17.768 103.501 16.992 102.909 16C102.333 14.992 102.045 13.856 102.045 12.592C102.045 11.328 102.333 10.2 102.909 9.208C103.501 8.216 104.317 7.44 105.357 6.88C106.397 6.32 107.565 6.04 108.861 6.04C110.173 6.04 111.349 6.32 112.389 6.88C113.429 7.44 114.237 8.216 114.813 9.208C115.405 10.2 115.701 11.328 115.701 12.592C115.701 13.856 115.405 14.992 114.813 16C114.237 16.992 113.429 17.768 112.389 18.328C111.349 18.888 110.173 19.168 108.861 19.168ZM108.861 16.6C109.965 16.6 110.877 16.232 111.597 15.496C112.317 14.76 112.677 13.792 112.677 12.592C112.677 11.392 112.317 10.424 111.597 9.688C110.877 8.952 109.965 8.584 108.861 8.584C107.757 8.584 106.845 8.952 106.125 9.688C105.421 10.424 105.069 11.392 105.069 12.592C105.069 13.792 105.421 14.76 106.125 15.496C106.845 16.232 107.757 16.6 108.861 16.6ZM138.21 6.184L133.482 19H130.602L127.29 10.168L123.93 19H121.05L116.346 6.184H119.178L122.562 15.64L126.09 6.184H128.61L132.066 15.688L135.546 6.184H138.21Z" fill="white"/>
</svg>
